<svg width="25" height="25" viewBox="0 0 25 25" fill="none" xmlns="http://www.w3.org/2000/svg">
<path d="M12.5 0C5.60729 0 0 5.60729 0 12.5C0 19.3927 5.60729 25 12.5 25C19.3927 25 25 19.3927 25 12.5C25 5.60729 19.3927 0 12.5 0ZM18.8354 9.85104L12.0646 16.6219C11.8615 16.825 11.5948 16.9271 11.3281 16.9271C11.0615 16.9271 10.7948 16.825 10.5917 16.6219L7.20625 13.2365C6.79896 12.8292 6.79896 12.1708 7.20625 11.7635C7.61354 11.3563 8.27188 11.3563 8.67917 11.7635L11.3281 14.4125L17.3625 8.37813C17.7698 7.97083 18.4281 7.97083 18.8354 8.37813C19.2427 8.78542 19.2427 9.44375 18.8354 9.85104Z" fill="#90E40D"/>
</svg>
