<svg width="25" height="25" viewBox="0 0 25 25" fill="none" xmlns="http://www.w3.org/2000/svg">
<path fill-rule="evenodd" clip-rule="evenodd" d="M12.5 25C19.4036 25 25 19.4036 25 12.5C25 5.59644 19.4036 0 12.5 0C5.59644 0 0 5.59644 0 12.5C0 19.4036 5.59644 25 12.5 25ZM17.2015 17.5358C16.7863 17.9316 16.1289 17.9159 15.7331 17.5007L12.5016 14.1108L9.08796 17.5244C8.68236 17.93 8.02476 17.93 7.61916 17.5244C7.21357 17.1188 7.21357 16.4612 7.61916 16.0556L11.068 12.6068L7.60297 8.97192C7.20719 8.55674 7.22292 7.89932 7.63811 7.50354C8.05329 7.10777 8.7107 7.1235 9.10648 7.53868L12.5372 11.1376L15.951 7.72381C16.3566 7.31821 17.0142 7.31821 17.4198 7.72381C17.8254 8.12941 17.8254 8.78701 17.4198 9.1926L13.9708 12.6416L17.2366 16.0675C17.6324 16.4826 17.6166 17.14 17.2015 17.5358Z" fill="#645A76"/>
</svg>
